<svg xmlns="http://www.w3.org/2000/svg" width="1024" height="1024" viewBox="0 0 1024 1024" version="1.1">
	<rect x="0" y="0" width="100%" height="100%" fill="#303050" />
	<path d="M 0 512.001 L 0 1024.002 512.250 1023.751 L 1024.500 1023.500 1024.751 511.750 L 1025.002 0 512.501 0 L 0 0 0 512.001 M 0.496 512.500 C 0.496 794.100, 0.610 909.151, 0.750 768.168 C 0.890 627.186, 0.890 396.786, 0.750 256.168 C 0.610 115.551, 0.496 230.900, 0.496 512.500 M 498 213.633 C 496.625 213.832, 491.450 214.486, 486.500 215.087 C 428.054 222.180, 369.761 250.825, 326.205 293.855 C 277.939 341.538, 246.347 408.711, 239.936 477.283 C 238.205 495.792, 239.186 529.822, 241.960 547.500 C 255.300 632.513, 304.796 708.417, 376 753.054 C 387.329 760.155, 409.270 771.130, 410.227 770.173 C 411.945 768.455, 457 665.514, 457 663.307 C 457 661.796, 454.613 658.179, 450.511 653.476 C 388.660 582.556, 371.380 482.726, 405.622 394.131 C 418.769 360.113, 437.320 331.145, 462.800 304.846 C 484.146 282.814, 502.935 269.039, 529.500 255.944 C 548.896 246.384, 567.184 240.164, 588.500 235.879 C 597.300 234.110, 605.063 232.234, 605.750 231.709 C 608.148 229.879, 607.135 226.954, 603.592 225.474 C 594.663 221.743, 567.932 216.084, 549.500 214.023 C 541.174 213.092, 503.711 212.809, 498 213.633 M 559.376 363.817 C 453.188 470.495, 422.099 502.274, 421.570 504.683 C 420.685 508.709, 423 514.298, 426.501 516.593 C 428.791 518.093, 433.087 518.457, 456.834 519.159 C 472.050 519.609, 496.612 520.400, 511.415 520.916 C 551.283 522.307, 550.353 520.172, 529.951 563.500 C 522.182 580, 506.011 614.425, 494.016 640 C 482.020 665.575, 468.298 694.600, 463.522 704.500 C 451.257 729.920, 428.341 779.095, 427.587 781.609 C 426.872 783.993, 429.020 786.359, 431.422 785.833 C 432.257 785.650, 443.866 773.556, 457.220 758.959 C 585.162 619.101, 650.008 548.949, 705.331 490.546 C 717.338 477.871, 727.861 466.085, 728.716 464.356 C 730.684 460.373, 729.814 456.660, 726.026 452.872 L 723.154 450 705.827 449.952 C 696.297 449.926, 672.430 449.314, 652.789 448.593 C 622.773 447.491, 616.676 447.018, 614.555 445.628 C 611.649 443.724, 610.487 440.199, 611.463 436.250 C 611.837 434.738, 619.253 417.075, 627.942 397 C 636.631 376.925, 650.147 345.425, 657.977 327 C 665.807 308.575, 678.709 278.749, 686.647 260.719 C 694.585 242.690, 700.811 227.503, 700.481 226.969 C 700.152 226.436, 699.121 226.014, 698.191 226.031 C 697.261 226.048, 634.794 288.052, 559.376 363.817 M 754.837 663.755 C 753.372 664.715, 748.768 668.335, 744.605 671.800 C 717.373 694.464, 682.292 710.402, 644.500 717.279 C 634.470 719.104, 628.807 719.462, 610 719.461 C 583.717 719.458, 571.534 717.731, 546.500 710.459 L 531.500 706.102 528.372 709.301 C 525.461 712.279, 492.154 747.868, 466.222 775.710 L 454.944 787.819 466.049 790.423 C 487.795 795.523, 500.400 797.130, 523 797.687 C 569.914 798.842, 608.025 790.672, 649.622 770.543 C 694.199 748.972, 733.994 715.381, 759.060 678.166 C 764.681 669.822, 765.136 667.039, 761.365 664.073 C 758.184 661.570, 758.173 661.570, 754.837 663.755" stroke="none" fill="#f0c060" fill-rule="evenodd"/>
</svg>